<svg id="Capa_2" data-name="Capa 2" xmlns="http://www.w3.org/2000/svg" viewBox="0 0 139.54 142.5"><defs><style>.cls-1,.cls-2,.cls-7{fill:#fff;}.cls-1,.cls-6,.cls-7,.cls-9{stroke:#4c88ce;}.cls-1,.cls-2,.cls-3,.cls-4,.cls-5,.cls-6,.cls-9{stroke-miterlimit:10;}.cls-1,.cls-2,.cls-3,.cls-4,.cls-5,.cls-6,.cls-7,.cls-8,.cls-9{stroke-width:3px;}.cls-2,.cls-3,.cls-4{stroke:#3079c1;}.cls-3,.cls-4,.cls-6,.cls-8,.cls-9{fill:none;}.cls-4,.cls-7,.cls-8,.cls-9{stroke-linecap:round;}.cls-5{fill:#4c88ce;}.cls-5,.cls-8{stroke:#fff;}.cls-7,.cls-8{stroke-linejoin:round;}</style></defs><title>directorio</title><rect class="cls-1" x="1.5" y="80.72" width="109.61" height="60.28"/><polygon class="cls-2" points="20.41 80.79 20.43 28.9 51.82 1.5 111.11 1.5 111.11 80.72 20.41 80.79"/><polygon class="cls-1" points="1.5 80.8 1.5 68.01 56.3 68.01 66.72 80.97 1.5 80.8"/><polyline class="cls-3" points="20.43 28.9 52.82 28.9 52.82 1.5"/><line class="cls-4" x1="33.39" y1="32.89" x2="52.82" y2="32.89"/><line class="cls-4" x1="33.39" y1="41.36" x2="66.27" y2="41.36"/><line class="cls-4" x1="33.39" y1="49.83" x2="66.27" y2="49.83"/><circle class="cls-5" cx="90.39" cy="45.91" r="14.68"/><circle class="cls-6" cx="90.39" cy="45.91" r="19.75"/><path class="cls-1" d="M799.26,333.18s9.45-2.08,12.24-16.78l4.16,2.88c.11-1.66-2.21,9.44-12.24,16.78Z" transform="translate(-700 -268.5)"/><path class="cls-7" d="M814.73,324.18l19.56,13.55c3.44,2.38,4.75,6.48,2.93,9.12h0c-1.83,2.63-6.13,2.84-9.57.46l-19.56-13.55" transform="translate(-700 -268.5)"/><polyline class="cls-8" points="83.16 49.29 88.22 52.33 96.32 39.67"/><line class="cls-4" x1="33.39" y1="57.8" x2="66.27" y2="57.8"/><line class="cls-9" x1="5.49" y1="134.02" x2="52.82" y2="134.02"/><rect class="cls-1" x="61.29" y="11.46" width="9.47" height="9.47"/><rect class="cls-1" x="78.23" y="11.46" width="9.47" height="9.47"/><rect class="cls-1" x="94.67" y="11.46" width="9.47" height="9.47"/></svg>
