<svg id="Capa_2" data-name="Capa 2" xmlns="http://www.w3.org/2000/svg" viewBox="0 0 141.77 134.83"><defs><style>.cls-1,.cls-2,.cls-3{fill:none;}.cls-1,.cls-2,.cls-3,.cls-4,.cls-5{stroke:#4c88ce;stroke-width:3px;}.cls-1{stroke-miterlimit:10;}.cls-2,.cls-5{stroke-linecap:round;}.cls-2,.cls-3,.cls-4,.cls-5{stroke-linejoin:round;}.cls-4,.cls-5{fill:#fff;}.cls-6{fill:#4c88ce;}</style></defs><title>repositorio</title><path class="cls-1" d="M393.42,483.73V444s.91-7.78,8.69-7.78h58.52s7.78-.91,8.23,7.78c.34,6.45,0,39.77,0,39.77Z" transform="translate(-359 -372.5)"/><path class="cls-1" d="M480.29,436.18V470l-11.43,13.71,5,12.81h-37v3.2H423.14v-3.2h-37s.46,7.31,7.32,8.68,75.9,0,75.9,0,5-1.37,4.57-8.68" transform="translate(-359 -372.5)"/><polyline class="cls-1" points="74.2 63.56 74.2 32.59 93.4 15.22"/><polyline class="cls-1" points="34.42 87.46 15.67 77.86 15.67 33.51"/><line class="cls-1" x1="31.22" y1="116.72" x2="49.05" y2="116.72"/><line class="cls-1" x1="27.1" y1="124.04" x2="34.42" y2="111.23"/><circle class="cls-1" cx="121.29" cy="44.48" r="18.97"/><path class="cls-1" d="M471.23,425.62s0-9.27,8.43-8.85,8.86,8.85,8.86,8.85" transform="translate(-359 -372.5)"/><circle class="cls-1" cx="54.31" cy="46.99" r="8"/><circle class="cls-1" cx="16.02" cy="18.99" r="14.52"/><path class="cls-1" d="M368.08,398.1s0-7.1,6.45-6.77,6.78,6.77,6.78,6.77" transform="translate(-359 -372.5)"/><circle class="cls-1" cx="99.12" cy="9.5" r="8"/><circle class="cls-1" cx="121.5" cy="38.37" r="5.9"/><circle class="cls-1" cx="15.69" cy="14.47" r="4.52"/><line class="cls-1" x1="54.08" y1="55" x2="54.31" y2="63.45"/><rect class="cls-2" x="70.54" y="70.08" width="4.12" height="4.12"/><rect class="cls-3" x="66.43" y="74.2" width="12.35" height="3.66"/><rect class="cls-3" x="62.77" y="77.86" width="18.75" height="9.6"/><polygon class="cls-4" points="57.51 87.46 72.13 83.8 85.86 87.46 84.53 90.66 71.68 87.92 59.28 90.66 57.51 87.46"/><path class="cls-5" d="M419,465l11.44-2.75.45,14.18s-1.55-1.43-6.4-.92c-.19,0-1.83.46-1.83.46Z" transform="translate(-359 -372.5)"/><path class="cls-5" d="M442.8,464.86l-11.43-2.62-.46,14.18.46.22a7.3,7.3,0,0,0,8.23-2.18Z" transform="translate(-359 -372.5)"/><path class="cls-6" d="M419.94,478.32a11,11,0,0,1,5.69-2,11.17,11.17,0,0,1,3.15.17,11,11,0,0,1,1.55.4c.26.08.5.2.75.3l.68.29a7.14,7.14,0,0,0,4.61.37,24.84,24.84,0,0,0,2.64-.71,16.74,16.74,0,0,1,2.87-.75,16.54,16.54,0,0,1-4.76,3.7,8.42,8.42,0,0,1-3.2.79,7.52,7.52,0,0,1-3.4-.67l-.64-.29c-.19-.08-.38-.18-.57-.25-.4-.15-.79-.31-1.2-.42a17.09,17.09,0,0,0-2.54-.58A34,34,0,0,0,419.94,478.32Z" transform="translate(-359 -372.5)"/></svg>