<svg xmlns="http://www.w3.org/2000/svg" xmlns:xlink="http://www.w3.org/1999/xlink" viewBox="0 0 700 700" preserveAspectRatio="none" width="100%" height="100%"><defs><style>.cls-1{fill:url(#Degradado_sin_nombre_68);}.cls-2{fill:url(#Degradado_sin_nombre_120);}.cls-3,.cls-4{fill-opacity:0.72;}.cls-3{fill:url(#Degradado_sin_nombre_190);}.cls-4{fill:url(#Degradado_sin_nombre_209);}.cls-5{fill:url(#Degradado_sin_nombre_113);}.cls-6{fill:#002985;}.cls-7{fill:url(#Degradado_sin_nombre_158);}.cls-8{fill:url(#Degradado_sin_nombre_165);}.cls-9{fill:url(#Degradado_sin_nombre_165-2);}.cls-10{fill:url(#Degradado_sin_nombre_178);}.cls-11{fill:#000c21;}.cls-12{fill:#001a44;fill-opacity:0.64;}.cls-13{fill:#002a64;fill-opacity:0.53;}.cls-14{fill:#186fe9;}.cls-15{fill:#002450;fill-opacity:0.78;}.cls-16{fill:#11172e;}.cls-17{fill-opacity:0.75;fill:url(#Degradado_sin_nombre_224);}.cls-18{fill:url(#Degradado_sin_nombre_158-2);}.cls-19{fill:url(#Degradado_sin_nombre_165-3);}</style><linearGradient id="Degradado_sin_nombre_68" y1="81.77" x2="1366" y2="81.77" gradientUnits="userSpaceOnUse"><stop offset="0" stop-color="#11175f"/><stop offset="0.14" stop-color="#1455ef"/><stop offset="0.38" stop-color="#5b7db8"/><stop offset="0.53" stop-color="#6080b4"/><stop offset="0.78" stop-color="#5a7db9"/><stop offset="1" stop-color="#063889"/></linearGradient><linearGradient id="Degradado_sin_nombre_120" x1="494.1" y1="361.78" x2="1053" y2="361.78" gradientUnits="userSpaceOnUse"><stop offset="0.02" stop-color="#0064da"/><stop offset="1" stop-color="#00a6f5"/></linearGradient><linearGradient id="Degradado_sin_nombre_190" x1="205" y1="43.47" x2="946" y2="43.47" gradientUnits="userSpaceOnUse"><stop offset="0" stop-color="#0055e0"/><stop offset="0.18" stop-color="#0026af" stop-opacity="0.88"/><stop offset="1" stop-color="#3fd6ff"/></linearGradient><linearGradient id="Degradado_sin_nombre_209" x1="1.03" y1="91.08" x2="493.1" y2="91.08" gradientUnits="userSpaceOnUse"><stop offset="0.01" stop-color="#002b71"/><stop offset="0.18" stop-color="#0026af" stop-opacity="0.88"/><stop offset="1" stop-color="#0064c2"/></linearGradient><linearGradient id="Degradado_sin_nombre_113" x1="943.69" y1="32.42" x2="1366" y2="32.42" gradientUnits="userSpaceOnUse"><stop offset="0.47" stop-color="#0064da"/><stop offset="0.72" stop-color="#00357b"/><stop offset="1" stop-color="#003378"/></linearGradient><linearGradient id="Degradado_sin_nombre_158" x1="873" y1="119.42" x2="1083.83" y2="119.42" gradientUnits="userSpaceOnUse"><stop offset="0.02" stop-color="#00047f"/><stop offset="0.58" stop-color="#0026af" stop-opacity="0.88"/><stop offset="1" stop-color="#000f87"/></linearGradient><linearGradient id="Degradado_sin_nombre_165" x1="873" y1="63.91" x2="1083.83" y2="63.91" gradientUnits="userSpaceOnUse"><stop offset="0.02" stop-color="#007ae3"/><stop offset="0.58" stop-color="#0026af" stop-opacity="0.88"/><stop offset="1" stop-color="#003c98"/></linearGradient><linearGradient id="Degradado_sin_nombre_165-2" x1="956" y1="412.62" x2="1366" y2="412.62" xlink:href="#Degradado_sin_nombre_165"/><linearGradient id="Degradado_sin_nombre_178" x1="1202" y1="109.66" x2="1366" y2="109.66" gradientUnits="userSpaceOnUse"><stop offset="0.02" stop-color="#001b40"/><stop offset="0.74" stop-color="#0026af" stop-opacity="0.88"/><stop offset="1" stop-color="#001843"/></linearGradient><linearGradient id="Degradado_sin_nombre_224" y1="124.53" x2="494" y2="124.53" gradientUnits="userSpaceOnUse"><stop offset="0.01" stop-color="#00265f"/><stop offset="0.09" stop-color="#00268b" stop-opacity="0.99"/><stop offset="0.18" stop-color="#0026af" stop-opacity="0.88"/><stop offset="0.32" stop-color="#003384" stop-opacity="0.97"/><stop offset="0.61" stop-color="#003482"/><stop offset="1" stop-color="#0064c2"/></linearGradient><linearGradient id="Degradado_sin_nombre_158-2" x1="139" y1="423.04" x2="535" y2="423.04" xlink:href="#Degradado_sin_nombre_158"/><linearGradient id="Degradado_sin_nombre_165-3" x1="494" y1="124.53" x2="899" y2="124.53" xlink:href="#Degradado_sin_nombre_165"/></defs><title>pie de página</title><g id="Capa_1" data-name="Capa 1"><polygon class="cls-1" points="0 162.53 494 162.53 1366 160.53 1366 1 0 1 0 162.53"/><path class="cls-2" d="M494.1,385.41l445.48-85.94H1053L968.58,314l-66,80.57,20.07,29.54S758.09,404.56,494.1,385.41Z" transform="translate(0 -298.47)"/><polygon class="cls-3" points="205 0 493.1 86.94 946 10.07 923 0 205 0"/><polygon class="cls-4" points="493.1 86.94 1.03 101.39 1.03 80.77 493.1 86.94"/><polygon class="cls-5" points="1366 1 1061.57 1 943.69 8.29 1303.06 63.85 1337.56 56.8 1366 56.8 1366 1"/><polygon class="cls-6" points="943.69 8.29 1311.17 64.78 1083.83 76.31 943.69 8.29"/><polygon class="cls-7" points="898 161.53 873 119.53 1083.83 76.31 956 162.53 898 161.53"/><polygon class="cls-8" points="873 119.53 943.69 8.29 1083.83 76.31 873 119.53"/><path class="cls-9" d="M956,461l127.83-85.22,227.34-11.53L1366,370l-164,91S977,460.34,956,461Z" transform="translate(0 -298.47)"/><polygon class="cls-10" points="1202 162.53 1337.56 56.8 1366 56.8 1366 160.53 1202 162.53"/><polygon class="cls-11" points="1291.06 65.8 1366.06 53.77 1366.06 67.47 1291.06 65.8"/><polygon class="cls-12" points="1366.06 67.47 1291.06 65.8 1083.83 76.31 1366 89.3 1366.06 67.47"/><polygon class="cls-13" points="1366 89.3 1366 115.49 1083.83 76.31 1366 89.3"/><polygon class="cls-14" points="929 2.25 943.69 8.29 531 2.25 929 2.25"/><polygon class="cls-15" points="1.03 39.68 1.03 1 102.65 1 1.03 39.68"/><polygon class="cls-16" points="1328.56 1 1366 1 1366 11.48 1328.56 1"/><polygon class="cls-17" points="1 101.53 494 86.53 139 162.53 0 162.53 1 101.53"/></g><g id="Capa_3" data-name="Capa 3"><path class="cls-18" d="M139,461l354-76,42,76S138.32,461.19,139,461Z" transform="translate(0 -298.47)"/><polygon class="cls-19" points="535 162.53 494 86.53 873 119.53 899 162.53 535 162.53"/></g></svg>