<?xml version="1.0" encoding="utf-8"?>
<!-- Generator: Adobe Illustrator 23.0.2, SVG Export Plug-In . SVG Version: 6.00 Build 0)  -->
<svg version="1.1" id="Capa_1" xmlns="http://www.w3.org/2000/svg" xmlns:xlink="http://www.w3.org/1999/xlink" x="0px" y="0px"
	 viewBox="0 0 1383.3 166.6" preserveAspectRatio="none" style="enable-background:new 0 0 1383.3 166.6;" xml:space="preserve">
<style type="text/css">
	.st0{fill:url(#SVGID_1_);}
	.st1{fill:url(#SVGID_2_);}
	.st2{fill:url(#SVGID_3_);fill-opacity:0.72;}
	.st3{fill:url(#SVGID_4_);fill-opacity:0.72;}
	.st4{fill:url(#SVGID_5_);}
	.st5{fill:#002985;}
	.st6{fill:url(#SVGID_6_);}
	.st7{fill:url(#SVGID_7_);}
	.st8{fill:url(#SVGID_8_);}
	.st9{fill:url(#SVGID_9_);}
	.st10{fill:#000C21;}
	.st11{fill:#001A44;fill-opacity:0.64;}
	.st12{fill:#002A64;fill-opacity:0.53;}
	.st13{fill:#186FE9;}
	.st14{fill:#002450;fill-opacity:0.78;}
	.st15{fill:#11172E;}
	.st16{fill:url(#SVGID_10_);fill-opacity:0.75;}
	.st17{fill:#CEAF63;stroke:#663E16;stroke-width:0.75;stroke-miterlimit:10;}
</style>
<title>encabezado cuerda</title>
<g>
	
		<linearGradient id="SVGID_1_" gradientUnits="userSpaceOnUse" x1="-13.661" y1="993.23" x2="1379.6591" y2="993.23" gradientTransform="matrix(1 0 0 1 10.5 -912.47)">
		<stop  offset="0" style="stop-color:#11175F"/>
		<stop  offset="0.14" style="stop-color:#1455EF"/>
		<stop  offset="0.38" style="stop-color:#5B7DB8"/>
		<stop  offset="0.53" style="stop-color:#6080B4"/>
		<stop  offset="0.78" style="stop-color:#5A7DB9"/>
		<stop  offset="1" style="stop-color:#063889"/>
	</linearGradient>
	<path class="st0" d="M-3.2,157c0,0,200-94.7,503-70s703.7,67.9,890.4,75.1V-0.6H-3.2V157z"/>
	
		<linearGradient id="SVGID_2_" gradientUnits="userSpaceOnUse" x1="490.321" y1="975.431" x2="1060.399" y2="975.431" gradientTransform="matrix(1 0 0 1 10.5 -912.47)">
		<stop  offset="2.000000e-02" style="stop-color:#0064DA"/>
		<stop  offset="1" style="stop-color:#00A6F5"/>
	</linearGradient>
	<path class="st1" d="M500.8,87L955.2-0.6h115.7l-86.1,14.8l-67.3,82.2l20.5,30.1C938,126.5,770.1,106.6,500.8,87z"/>
	
		<linearGradient id="SVGID_3_" gradientUnits="userSpaceOnUse" x1="205.939" y1="954.714" x2="961.759" y2="954.714" gradientTransform="matrix(1 0 0 1 0 -912)">
		<stop  offset="0" style="stop-color:#0055E0"/>
		<stop  offset="0.18" style="stop-color:#0026AF;stop-opacity:0.88"/>
		<stop  offset="1" style="stop-color:#3FD6FF"/>
	</linearGradient>
	<polygon class="st2" points="205.9,-1.6 499.8,87 961.8,8.7 938.3,-1.6 	"/>
	
		<linearGradient id="SVGID_4_" gradientUnits="userSpaceOnUse" x1="-12.641" y1="1003.736" x2="489.301" y2="1003.736" gradientTransform="matrix(1 0 0 1 10.5 -912.47)">
		<stop  offset="1.000000e-02" style="stop-color:#002B71"/>
		<stop  offset="0.18" style="stop-color:#0026AF;stop-opacity:0.88"/>
		<stop  offset="1" style="stop-color:#0064C2"/>
	</linearGradient>
	<path class="st3" d="M499.8,87c0,0-90.8-4.3-105.2-4.1c-14.4,0.2-69.4,2.1-80.6,3S-2.1,101.7-2.1,101.7V80.8h406L499.8,87z"/>
	
		<linearGradient id="SVGID_5_" gradientUnits="userSpaceOnUse" x1="959.413" y1="943.443" x2="1390.1591" y2="943.443" gradientTransform="matrix(1 0 0 1 0 -912)">
		<stop  offset="0.47" style="stop-color:#0064DA"/>
		<stop  offset="0.72" style="stop-color:#00357B"/>
		<stop  offset="1" style="stop-color:#003378"/>
	</linearGradient>
	<polygon class="st4" points="1390.2,-0.6 1079.7,-0.6 959.4,6.9 1326,63.5 1361.2,56.3 1390.2,56.3 	"/>
	<polygon class="st5" points="959.4,6.9 1334.3,64.5 1102.3,76.2 	"/>
	
		<linearGradient id="SVGID_6_" gradientUnits="userSpaceOnUse" x1="887.401" y1="1015.404" x2="1102.3151" y2="1015.404" gradientTransform="matrix(1 0 0 1 0 -912)">
		<stop  offset="2.000000e-02" style="stop-color:#00047F"/>
		<stop  offset="0.58" style="stop-color:#0026AF;stop-opacity:0.88"/>
		<stop  offset="1" style="stop-color:#000F87"/>
	</linearGradient>
	<polygon class="st6" points="896.6,122.4 887.4,103.9 1102.3,76.2 1010.7,130.6 	"/>
	
		<linearGradient id="SVGID_7_" gradientUnits="userSpaceOnUse" x1="887.401" y1="967.362" x2="1102.3151" y2="967.362" gradientTransform="matrix(1 0 0 1 0 -912)">
		<stop  offset="2.000000e-02" style="stop-color:#007AE3"/>
		<stop  offset="0.58" style="stop-color:#0026AF;stop-opacity:0.88"/>
		<stop  offset="1" style="stop-color:#003C98"/>
	</linearGradient>
	<polygon class="st7" points="887.4,103.9 959.4,6.9 1102.3,76.2 	"/>
	
		<linearGradient id="SVGID_8_" gradientUnits="userSpaceOnUse" x1="1000.219" y1="1020.617" x2="1379.5571" y2="1020.617" gradientTransform="matrix(1 0 0 1 10.5 -912.47)">
		<stop  offset="2.000000e-02" style="stop-color:#007AE3"/>
		<stop  offset="0.58" style="stop-color:#0026AF;stop-opacity:0.88"/>
		<stop  offset="1" style="stop-color:#003C98"/>
	</linearGradient>
	<path class="st8" d="M1010.7,130.6l91.6-54.4l231.8-11.7l55.9,5.9l-164,81.4C1226.1,151.8,1032.1,129.9,1010.7,130.6z"/>
	
		<linearGradient id="SVGID_9_" gradientUnits="userSpaceOnUse" x1="1215.6429" y1="1021.688" x2="1379.5571" y2="1021.688" gradientTransform="matrix(1 0 0 1 10.5 -912.47)">
		<stop  offset="2.000000e-02" style="stop-color:#001B40"/>
		<stop  offset="0.74" style="stop-color:#0026AF;stop-opacity:0.88"/>
		<stop  offset="1" style="stop-color:#001843"/>
	</linearGradient>
	<path class="st9" d="M1226.1,151.7l134.9-95.4h29v105.8C1390.2,162.1,1277,157.3,1226.1,151.7z"/>
	<polygon class="st10" points="1313.8,65.5 1390.3,53.3 1390.3,67.2 	"/>
	<polygon class="st11" points="1390.3,67.2 1313.8,65.5 1102.3,76.2 1390.2,89.5 	"/>
	<polygon class="st12" points="1390.2,89.5 1390.2,116.2 1102.3,76.2 	"/>
	<polygon class="st13" points="944.4,0.7 959.4,6.9 538.5,0.7 	"/>
	<polygon class="st14" points="-2.1,38.9 -2.1,-0.6 101.6,-0.6 	"/>
	<polygon class="st15" points="1352,-0.6 1390.2,-0.6 1390.2,10.1 	"/>
	
		<linearGradient id="SVGID_10_" gradientUnits="userSpaceOnUse" x1="-13.661" y1="1034.8459" x2="269.899" y2="1034.8459" gradientTransform="matrix(1 0 0 1 10.5 -912.47)">
		<stop  offset="1.000000e-02" style="stop-color:#00265F"/>
		<stop  offset="9.000000e-02" style="stop-color:#00268B;stop-opacity:0.99"/>
		<stop  offset="0.18" style="stop-color:#0026AF;stop-opacity:0.88"/>
		<stop  offset="0.32" style="stop-color:#003384;stop-opacity:0.97"/>
		<stop  offset="0.61" style="stop-color:#003482"/>
		<stop  offset="1" style="stop-color:#0064C2"/>
	</linearGradient>
	<path class="st16" d="M-2.1,101.8l282.5-14.1c0,0-122.7,18.3-162.6,29.2S-3.2,157-3.2,157L-2.1,101.8z"/>
</g>
<g>
	<path class="st17" d="M-0.1,153.4c-3.1,4.9-6,9.8-9,14.7l3.6-0.1c8.4-0.2,18.1-4.9,21.6-10.5c3.1-4.8,6.1-9.7,9.2-14.5h-3.7
		C13.2,143,3.3,147.8-0.1,153.4z"/>
	<path class="st17" d="M24.2,144.5c-3.1,4.8-6.1,9.6-9.2,14.5h3.7c8.5-0.1,18.2-4.6,21.8-10.1c3.1-4.8,6.2-9.6,9.4-14.4h-3.7
		C37.8,134.3,27.9,138.8,24.2,144.5z"/>
	<path class="st17" d="M47.8,137.4c-3.2,4.8-6.3,9.6-9.4,14.3H42c8.5,0,18.3-4.3,21.9-9.8c3.2-4.8,6.4-9.5,9.6-14.2h-3.6
		C61.5,127.4,51.5,131.8,47.8,137.4z"/>
	<path class="st17" d="M72.5,129.1c-3.3,4.7-6.4,9.5-9.6,14.2l3.6,0.1c4.4,0,8.8-0.9,12.9-2.7c4-1.7,7.4-4.1,9.3-6.8
		c3.3-4.7,6.5-9.4,9.8-14.1l-3.7-0.1C86.2,119.3,76.3,123.5,72.5,129.1z"/>
	<path class="st17" d="M95.6,123.3c-3.3,4.7-6.5,9.4-9.8,14.1l3.6,0.1c8.5,0.3,18.4-3.8,22.2-9.2c3.3-4.7,6.6-9.3,10-13.9l-3.7-0.2
		C109.6,113.7,99.5,117.8,95.6,123.3z"/>
	<path class="st17" d="M120.5,115.8c-3.4,4.6-6.7,9.3-10,13.9l3.6,0.2c4.4,0.1,8.8-0.6,12.9-2.2c4.1-1.6,7.5-3.9,9.5-6.6
		c3.4-4.6,6.7-9.2,10.2-13.8l-3.7-0.3c-4.5-0.2-8.9,0.5-13.1,2.1C126,110.7,122.6,113.1,120.5,115.8z"/>
	<path class="st17" d="M144.5,110l-10.2,13.8l3.6,0.2c8.5,0.5,18.5-3.2,22.5-8.6l10.5-13.6l-3.7-0.3
		C158.8,100.9,148.5,104.7,144.5,110z"/>
	<path class="st17" d="M169.7,103.3c-3.6,4.5-7,9-10.5,13.6l3.6,0.3c4.4,0.3,8.8-0.3,13-1.8c4.1-1.4,7.6-3.7,9.8-6.2
		c3.6-4.5,7.1-8.9,10.8-13.4l-3.7-0.4c-4.5-0.4-8.9,0.2-13.2,1.7C175.4,98.4,171.7,100.7,169.7,103.3z"/>
	<path class="st17" d="M195.2,97.8c-3.7,4.4-7.2,8.9-10.7,13.4l3.6,0.3c8.5,0.9,18.6-2.5,22.8-7.5c3.7-4.4,7.3-8.8,11.1-13.2
		l-3.7-0.5c-4.5-0.5-9,0-13.3,1.3C201,93,197.3,95.3,195.2,97.8z"/>
	<path class="st17" d="M220.8,92.2c-3.8,4.3-7.4,8.8-11.1,13.2l3.6,0.4c4.4,0.5,8.9,0,13.1-1.2c4.2-1.2,7.9-3.4,10-5.8
		c3.8-4.3,7.6-8.6,11.5-12.9l-3.6-0.6c-4.5-0.6-9-0.3-13.3,1C226.7,87.6,222.9,89.7,220.8,92.2z"/>
	<path class="st17" d="M245.3,88.4c-3.9,4.3-7.7,8.5-11.4,12.9c1.2,0.2,2.3,0.3,3.6,0.5c4.4,0.6,8.9,0.3,13.1-0.9
		c4.2-1.1,8-3.1,10.2-5.5c3.9-4.2,7.9-8.4,11.9-12.4l-3.6-0.7c-4.5-0.8-9-0.6-13.4,0.6C251.3,84,247.5,85.9,245.3,88.4z"/>
	<path class="st17" d="M271.2,84.2l-6,6.1l-5.9,6.3l3.6,0.6c4.4,0.7,8.8,0.5,13.2-0.5c4.2-1,8.1-2.8,10.4-5.1c4.1-4,8.2-8.2,12.4-12
		l-3.6-0.8c-4.5-0.9-9.1-0.8-13.5,0.1c-2.1,0.4-4.2,1.1-6,2C274.1,81.7,272.5,82.8,271.2,84.2z"/>
	<path class="st17" d="M295.4,82.5c-4.2,4-8.3,8.1-12.3,12l3.6,0.8c8.3,1.7,18.8-0.2,23.8-4.8c4.3-3.8,8.6-7.7,13.1-11.4l-3.6-0.9
		c-4.4-1.1-9.1-1.3-13.6-0.5C301.9,78.5,297.9,80.2,295.4,82.5z"/>
	<path class="st17" d="M322,80.3c-4.4,3.9-8.8,7.5-13,11.4c1.1,0.3,2.3,0.6,3.5,0.9c4.3,1.1,8.8,1.3,13.2,0.6
		c4.4-0.6,8.3-2,10.9-4.1c4.5-3.6,9.1-7,13.9-10.6l-3.6-1.2c-4.4-1.4-9.1-1.9-13.7-1.3C328.6,76.6,324.5,78,322,80.3z"/>
	<path class="st17" d="M347.3,80.6c-4.7,3.5-9.3,6.9-13.7,10.7l3.5,1.1c4.2,1.3,8.7,1.8,13.1,1.4c4.4-0.4,8.4-1.5,11-3.5l13.7-10.2
		l-3.4-1.3c-4.2-1.5-8.6-2-13-1.7c-2,0.1-4.1,0.5-6.1,1.1C350.5,78.7,348.9,79.5,347.3,80.6z"/>
	<path class="st17" d="M373.4,81l-13.7,10.2l3.4,1.3c8,3,18.6,2.2,24-1.7l13.8-10.2l-3.4-1.3C389.4,76.3,378.7,77,373.4,81z"/>
	<path class="st17" d="M399.1,82.4l-13.7,10.2l3.4,1.3c7.9,3.1,18.6,2.2,24-1.6l13.8-10.1l-3.3-1.3
		C415.2,77.7,404.5,78.4,399.1,82.4z"/>
	<path class="st17" d="M424.9,83.1l-13.8,10.1l3.4,1.3c7.9,3.1,18.6,2.3,24-1.5l13.8-10.1l-3.4-1.3C441,78.4,430.3,79.2,424.9,83.1z
		"/>
	<path class="st17" d="M449.3,84.9L435.5,95l3.4,1.3c7.9,3.1,18.6,2.4,24-1.4l13.8-10l-3.4-1.3C465.4,80.3,454.7,81,449.3,84.9z"/>
	<path class="st17" d="M475.1,85.7l-13.8,10l3.4,1.3c7.9,3.1,18.6,2.4,24-1.4l13.8-10l-3.4-1.3C491.1,81.1,480.4,81.7,475.1,85.7z"
		/>
	<path class="st17" d="M498.6,88l-13.8,10l3.4,1.3c7.9,3.2,18.6,2.4,24-1.4l13.9-10l-3.4-1.3C514.8,83.4,504,84.1,498.6,88z"/>
	<path class="st17" d="M524.4,88.9l-13.8,10l3.4,1.3c7.9,3.2,18.6,2.6,24-1.3l13.8-10l-3.4-1.3C540.5,84.4,529.7,85,524.4,88.9z"/>
	<path class="st17" d="M548.7,90.8l-13.9,10l3.4,1.3c7.9,3.2,18.6,2.6,24-1.3l13.9-10l-3.4-1.3C564.8,86.3,554.1,86.9,548.7,90.8z"
		/>
	<path class="st17" d="M574.4,91.7l-13.9,10l3.4,1.3c7.9,3.2,18.6,2.6,24-1.3l13.9-10l-3.4-1.3C590.5,87.3,579.8,87.8,574.4,91.7z"
		/>
	<path class="st17" d="M600.2,93.5l-13.9,10l3.4,1.3c7.9,3.2,18.6,2.6,24-1.3l13.9-9.9l-3.4-1.3C616.3,89.2,605.5,89.7,600.2,93.5z"
		/>
	<path class="st17" d="M625.9,94.6l-13.9,9.9l3.4,1.3c7.9,3.2,18.6,2.6,24-1.2l13.9-9.9l-3.4-1.3C642,90.2,631.3,90.7,625.9,94.6z"
		/>
	<path class="st17" d="M650.2,96.6l-13.9,9.9l3.4,1.3c7.9,3.2,18.6,2.7,24-1.2l13.9-9.9l-3.4-1.3C666.3,92.2,655.6,92.7,650.2,96.6z
		"/>
	<path class="st17" d="M676,97.6l-13.9,9.9l3.4,1.3c7.9,3.2,18.6,2.7,24-1.2l13.9-9.9l-3.4-1.3C692.1,93.2,681.4,93.7,676,97.6z"/>
	<path class="st17" d="M699.6,100.2l-13.9,9.9l3.4,1.3c7.9,3.2,18.6,2.7,24-1.2l13.9-9.9l-3.4-1.3C715.7,95.8,705,96.3,699.6,100.2z
		"/>
	<path class="st17" d="M725.3,101.3l-13.9,9.9l3.4,1.3c7.9,3.2,18.6,2.7,24-1.1l1.8-1.2c0.6-0.4,1.2-0.7,1.8-1.2l3.6-2.3l7-4.8
		l-3.3-1.4c-3.2-1.3-6.4-2.1-9.9-2.2c-1.1-0.1-2.2-0.1-3.4,0C732,98.3,728,99.4,725.3,101.3z"/>
	<path class="st17" d="M749.9,103.5l-7,4.8l-1.7,1.2c-0.6,0.4-1.2,0.8-1.8,1.2c-1.2,0.8-2.3,1.6-3.6,2.4l3.4,1.3
		c7.9,3.4,18.6,3.1,24-0.7l14.1-9.6l-3.3-1.4C766.1,99.6,755.4,99.9,749.9,103.5z"/>
	<path class="st17" d="M775.6,105.3l-14.1,9.6l3.3,1.4c7.8,3.4,18.5,3.1,24-0.7l14.1-9.6l-3.3-1.4
		C791.8,101.2,781.1,101.5,775.6,105.3z"/>
	<path class="st17" d="M801.2,107.7l-14.1,9.6l3.3,1.4c7.8,3.4,18.5,3.1,24-0.7l14.1-9.6l-3.3-1.4
		C817.4,103.6,806.7,103.9,801.2,107.7z"/>
	<path class="st17" d="M826.9,109.4l-14.1,9.6l3.3,1.4c7.8,3.4,18.5,3.1,24-0.7l14.1-9.6l-3.3-1.4
		C843.1,105.4,832.4,105.7,826.9,109.4z"/>
	<path class="st17" d="M851.1,111.9l-14.1,9.6l3.3,1.4c7.8,3.4,18.5,3.1,24-0.7l14.1-9.6l-3.3-1.4
		C867.4,107.9,856.7,108.2,851.1,111.9z"/>
	<path class="st17" d="M876.8,113.5l-14.1,9.6l3.3,1.4c7.8,3.4,18.5,3.1,24-0.7l14.1-9.6l-3.3-1.4
		C893.1,109.5,882.3,109.9,876.8,113.5z"/>
	<path class="st17" d="M900.3,116.6l-14.1,9.6l3.3,1.4c7.8,3.4,18.5,3.1,24-0.7l14.1-9.6l-3.3-1.4
		C916.5,112.5,905.8,112.8,900.3,116.6z"/>
	<path class="st17" d="M926,118.2l-14.1,9.6l3.3,1.4c7.8,3.4,18.5,3.1,24-0.7l14.1-9.6l-3.3-1.4C942.2,114.1,931.5,114.5,926,118.2z
		"/>
	<path class="st17" d="M950.2,120.7l-14,9.6l3.3,1.4c7.8,3.4,18.5,3,24-0.7l14.1-9.6l-3.3-1.4C966.4,116.6,955.7,116.9,950.2,120.7z
		"/>
	<path class="st17" d="M975.9,122.3l-14.1,9.6l3.3,1.4c7.8,3.4,18.5,3,24-0.7l14.1-9.6l-3.3-1.4
		C992.1,118.2,981.4,118.5,975.9,122.3z"/>
	<path class="st17" d="M1001.6,124.7l-14.1,9.7l3.3,1.4c7.8,3.4,18.5,3,24-0.8l14.1-9.7l-3.3-1.4
		C1017.8,120.6,1007.1,120.9,1001.6,124.7z"/>
	<path class="st17" d="M1027.3,126.2l-14.1,9.7l3.3,1.4c7.8,3.4,18.5,3,24-0.8l14.1-9.7l-3.3-1.4
		C1043.5,122.1,1032.7,122.4,1027.3,126.2z"/>
	<path class="st17" d="M1051.5,128.6l-14.1,9.7l3.3,1.4c7.8,3.4,18.5,3,24-0.8l14.1-9.7l-3.3-1.4
		C1067.7,124.6,1057,125,1051.5,128.6z"/>
	<path class="st17" d="M1077.2,130.3l-14.1,9.7l3.3,1.4c7.8,3.4,18.5,3,24-0.8l14.1-9.7l-3.3-1.4
		C1093.4,126.1,1082.7,126.5,1077.2,130.3z"/>
	<path class="st17" d="M1100.7,133.1l-14.1,9.7l3.3,1.4c7.8,3.4,18.5,3,24-0.8l14.1-9.7l-3.3-1.4
		C1116.9,129,1106.1,129.3,1100.7,133.1z"/>
	<path class="st17" d="M1126.4,134.6l-14.1,9.7l3.3,1.4c7.8,3.3,18.5,3,24-0.8l14.1-9.7l-3.3-1.4
		C1142.6,130.5,1131.9,130.9,1126.4,134.6z"/>
	<path class="st17" d="M1150.6,137l-14.1,9.7l3.3,1.4c7.8,3.3,18.5,3,24-0.8l14-9.7l-3.3-1.4C1166.8,132.9,1156.1,133.3,1150.6,137z
		"/>
	<path class="st17" d="M1176.3,138.5l-14,9.7l3.3,1.4c7.8,3.3,18.6,2.9,24-0.9l14-9.7l-3.3-1.4
		C1192.5,134.3,1181.8,134.8,1176.3,138.5z"/>
	<path class="st17" d="M1202,140.8l-14,9.7l3.3,1.4c7.8,3.3,18.6,2.9,24-0.9l14-9.8l-3.3-1.4C1218.1,136.5,1207.4,136.9,1202,140.8z
		"/>
	<path class="st17" d="M1227.7,142.1l-14.1,9.8l3.3,1.4c7.8,3.3,18.6,2.9,24-0.9l14-9.8l-3.3-1.4
		C1243.8,137.9,1233.1,138.3,1227.7,142.1z"/>
	<path class="st17" d="M1251.9,144.4l-14,9.8l3.3,1.4c7.8,3.3,18.6,2.9,24-1l14-9.8l-3.3-1.4C1268,140.2,1257.3,140.6,1251.9,144.4z
		"/>
	<path class="st17" d="M1277.6,145.8l-14,9.8l3.3,1.4c7.9,3.3,18.6,2.8,24-1l13.9-9.8l-3.4-1.3
		C1293.7,141.5,1283,141.9,1277.6,145.8z"/>
	<path class="st17" d="M1301.1,148.4l-14,9.9l3.4,1.4c7.9,3.3,18.6,2.8,24-1.1l13.9-9.9l-3.4-1.3
		C1317.2,144,1306.5,144.5,1301.1,148.4z"/>
	<path class="st17" d="M1326.8,149.5l-13.9,9.9l3.4,1.3c7.9,3.2,18.6,2.7,24-1.2l13.8-10l-3.4-1.3
		C1342.8,145.2,1332.2,145.7,1326.8,149.5z"/>
	<path class="st17" d="M1350.9,151.5l-13.8,10l3.4,1.3c7.9,3.2,18.6,2.6,23.9-1.4c4.6-3.4,9.1-6.7,13.6-10.1l-3.3-1.3
		C1367,147,1356.4,147.6,1350.9,151.5z"/>
	<path class="st17" d="M1376.5,152.3c-4.5,3.4-9.1,6.7-13.7,10.1l3.4,1.3c7.9,3.1,18.7,2.3,23.8-1.8c2.2-1.7,4.4-3.5,6.4-5.3
		c1-0.9,1.9-1.8,2.9-2.8c0.2-0.2,0.4-0.4,0.6-0.7l0.4-0.7l0.4-0.7v-0.1v-0.1l-0.2-0.2l-0.4-0.3c0.1-0.1,0.2-0.1,0.3-0.2l0.2-0.1
		c0,0-0.1,0-0.1-0.1l-0.5-0.3l-0.5-0.3l-0.2-0.1l-0.3-0.1c-0.8-0.3-1.7-0.6-2.7-0.8c-1-0.2-1.9-0.4-3-0.5c-2-0.2-4.2-0.2-6.3-0.1
		C1383.1,149,1379.1,150.3,1376.5,152.3z"/>
</g>
</svg>
