<?xml version="1.0" encoding="utf-8"?>
<!-- Generator: Adobe Illustrator 23.0.2, SVG Export Plug-In . SVG Version: 6.00 Build 0)  -->
<svg version="1.1" id="Capa_1" xmlns="http://www.w3.org/2000/svg" xmlns:xlink="http://www.w3.org/1999/xlink" x="0px" y="0px"
	 viewBox="0 0 1366.5 202.4" style="enable-background:new 0 0 1366.5 202.4;" xml:space="preserve">
<style type="text/css">
	.st0{fill:#002AA9;}
	.st1{opacity:0.2;fill:#009DEF;enable-background:new    ;}
	.st2{opacity:0.2;fill:#0083D4;enable-background:new    ;}
</style>
<title>ondas1</title>
<g>
	<path class="st0" d="M0,96.4c0,0,271-30.5,445-9.1s258,3.6,318-2.4s262-5.5,311,3.6s292,9.1,292,9.1s-110,61.8-397,16.6
		c-213.6-33.7-277-13.4-386,8.3s-199,12.7-241,7.1c-42-5.5-222-28.9-342-16.2V96.4z"/>
</g>
<g>
	<path class="st1" d="M1366.5,86.4c0,0-63-28.1-188-13.7s-233-7-320-12.3s-183,28.1-278,23.2c-95-4.9-181-23.9-181-23.9
		s-252-35.5-399,17.1v51.2c0,0,117.7-30.8,362,7c177,27.4,226,20.7,396,9.8c170-10.9,195.4-12.1,259-12.3c205-0.7,246-3.9,348,19.6
		L1366.5,86.4z"/>
</g>
<g id="Capa_3">
	<path class="st2" d="M0.5,116.1c0,0,63,28.1,188,13.7s233,7,320,12.3s183-28.1,278-23.2c95,4.9,181,23.9,181,23.9
		s252,35.4,399-17.2V74.3c0,0-117.7,30.8-362-7c-177-27.4-226-20.7-396-9.8s-195.4,12.1-259,12.3c-205,0.7-246,3.9-348-19.6
		L0.5,116.1z"/>
</g>
</svg>
